<svg width="34" height="34" viewBox="0 0 34 34" fill="none" xmlns="http://www.w3.org/2000/svg">
<path d="M7.41465 21.4398C7.41465 23.3858 5.82502 24.9754 3.87909 24.9754C1.93317 24.9754 0.343536 23.3858 0.343536 21.4398C0.343536 19.4939 1.93317 17.9043 3.87909 17.9043H7.41465V21.4398Z" fill="#E01E5A"/>
<path d="M9.19608 21.4399C9.19608 19.4939 10.7857 17.9043 12.7316 17.9043C14.6776 17.9043 16.2672 19.4939 16.2672 21.4399V30.2924C16.2672 32.2384 14.6776 33.828 12.7316 33.828C10.7857 33.828 9.19608 32.2384 9.19608 30.2924V21.4399Z" fill="#E01E5A"/>
<path d="M12.7316 7.24299C10.7857 7.24299 9.19608 5.65336 9.19608 3.70743C9.19608 1.76151 10.7857 0.171875 12.7316 0.171875C14.6776 0.171875 16.2672 1.76151 16.2672 3.70743V7.24299H12.7316Z" fill="#36C5F0"/>
<path d="M12.7317 9.02441C14.6776 9.02441 16.2672 10.614 16.2672 12.56C16.2672 14.5059 14.6776 16.0955 12.7317 16.0955H3.87909C1.93317 16.0955 0.343536 14.5059 0.343536 12.56C0.343536 10.614 1.93317 9.02441 3.87909 9.02441H12.7317Z" fill="#36C5F0"/>
<path d="M26.9287 12.56C26.9287 10.614 28.5184 9.02441 30.4643 9.02441C32.4102 9.02441 33.9999 10.614 33.9999 12.56C33.9999 14.5059 32.4102 16.0955 30.4643 16.0955H26.9287V12.56Z" fill="#2EB67D"/>
<path d="M25.1473 12.56C25.1473 14.506 23.5577 16.0956 21.6118 16.0956C19.6658 16.0956 18.0762 14.506 18.0762 12.56V3.70743C18.0762 1.76151 19.6658 0.171875 21.6118 0.171875C23.5577 0.171875 25.1473 1.76151 25.1473 3.70743V12.56Z" fill="#2EB67D"/>
<path d="M21.6118 26.7568C23.5577 26.7568 25.1473 28.3465 25.1473 30.2924C25.1473 32.2383 23.5577 33.8279 21.6118 33.8279C19.6658 33.8279 18.0762 32.2383 18.0762 30.2924V26.7568H21.6118Z" fill="#ECB22E"/>
<path d="M21.6118 24.9754C19.6658 24.9754 18.0762 23.3858 18.0762 21.4398C18.0762 19.4939 19.6658 17.9043 21.6118 17.9043H30.4643C32.4103 17.9043 33.9999 19.4939 33.9999 21.4398C33.9999 23.3858 32.4103 24.9754 30.4643 24.9754H21.6118Z" fill="#ECB22E"/>
</svg>
